<svg width="85.222mm" height="116.69mm" version="1.1" viewBox="0 0 85.222 116.69" xmlns="http://www.w3.org/2000/svg">
 <defs>
  <clipPath id="clipPath1144">
   <path d="m44.382 106.99c-0.08277 0-0.15095 3e-3 -0.20464 0.01-0.05369 7e-3 -0.09719 0.0171-0.13074 0.0305-0.03132 0.0112-0.05376 0.0255-0.06718 0.0434-0.01119 0.0179-0.01704 0.0381-0.01704 0.0605v1.6206c-0.13422-0.13199-0.26972-0.23106-0.40618-0.29817-0.13646-0.0694-0.28852-0.10439-0.4563-0.10439-0.21252 0-0.40048 0.0404-0.56379 0.12092-0.1633 0.0805-0.29966 0.19583-0.40928 0.34572-0.10962 0.14988-0.1935 0.33111-0.25166 0.54363-0.05593 0.21253-0.08372 0.45158-0.08372 0.71779 0 0.22147 0.02244 0.43325 0.06718 0.63458 0.04474 0.19911 0.11602 0.37361 0.21446 0.52349 0.10067 0.14988 0.22943 0.26915 0.38602 0.35863 0.15883 0.0872 0.35215 0.13126 0.58033 0.13126 0.20581 0 0.39291-0.0463 0.56069-0.13798 0.17002-0.0917 0.33192-0.21996 0.48628-0.3855v0.33228c0 0.0247 0.0059 0.0457 0.01704 0.0636 0.01341 0.0157 0.03361 0.0291 0.06046 0.0403 0.02908 0.011 0.06585 0.0186 0.11059 0.0232 0.04474 5e-3 0.10308 7e-3 0.17466 7e-3 0.06711 0 0.12269-3e-3 0.16743-7e-3 0.04698-4e-3 0.08426-0.0121 0.1111-0.0232 0.02685-0.0112 0.04566-0.0247 0.05684-0.0403 0.01119-0.0179 0.01707-0.039 0.01704-0.0636v-4.4028c0-0.0224-0.0067-0.0426-0.02013-0.0605-0.01342-0.0179-0.03586-0.0322-0.06718-0.0434-0.03132-0.0134-0.07395-0.0238-0.12764-0.0305-0.05369-7e-3 -0.12187-0.01-0.20464-0.01zm1.6945 0.10387c-0.19015 0-0.31977 0.0336-0.38912 0.10076-0.06711 0.0649-0.10077 0.18242-0.10077 0.35244 0 0.16334 0.03228 0.2764 0.09715 0.339 0.06711 0.0627 0.19587 0.0935 0.38602 0.0935 0.18792 0 0.31668-0.0323 0.38603-0.0971 0.06935-0.0649 0.10387-0.18242 0.10387-0.35244 0-0.16327-0.03366-0.27633-0.10077-0.33899-0.06711-0.0649-0.19449-0.0971-0.38241-0.0971zm-10.342 0.1943c-0.11409 0-0.20557 3e-3 -0.27492 7e-3 -0.06935 2e-3 -0.12406 0.01-0.16433 0.0233-0.03803 0.0112-0.06633 0.0291-0.08423 0.0537-0.01791 0.0223-0.03361 0.0524-0.04703 0.0904l-1.3389 3.8525c-0.02684 0.0783-0.04341 0.14059-0.05013 0.18759-0.0067 0.047 7.94e-4 0.0842 0.02326 0.1111 0.02238 0.0246 0.06276 0.0403 0.12092 0.047 0.05816 7e-3 0.13894 0.01 0.24184 0.01 0.09619 0 0.17334-2e-3 0.23151-7e-3 0.0604-4e-3 0.10614-0.0126 0.13746-0.0238 0.03356-0.0134 0.05686-0.03 0.07028-0.0501 0.01566-0.0223 0.02826-0.0493 0.03721-0.0806l0.27492-0.84905h1.6309l0.29197 0.87282c9e-3 0.0291 0.02016 0.0524 0.03359 0.0703 0.01344 0.0179 0.03673 0.0322 0.07028 0.0434 0.03355 9e-3 0.08205 0.0151 0.14469 0.017 0.06488 5e-3 0.15411 7e-3 0.2682 7e-3 0.10961 0 0.19574-3e-3 0.25838-0.01 0.06264-4e-3 0.10614-0.0179 0.13074-0.0403 0.02461-0.0246 0.03358-0.0605 0.02687-0.10749-0.0067-0.047-0.02328-0.11067-0.05013-0.1912l-1.3426-3.8489c-0.01342-0.0425-0.02999-0.0762-0.05013-0.10077-0.01791-0.0246-0.04931-0.0425-0.09405-0.0537-0.0425-0.0137-0.10257-0.0213-0.18087-0.0233-0.0783-5e-3 -0.18376-7e-3 -0.31574-7e-3zm-0.01344 0.84956h0.0036l0.61392 1.8454h-1.2315zm13.077 0.21446c-0.27516 0-0.51559 0.0412-0.7214 0.12402-0.20357 0.0828-0.37358 0.20031-0.51004 0.35244-0.13646 0.14987-0.23916 0.33111-0.30851 0.54363-0.06711 0.21029-0.10077 0.44312-0.10077 0.69815 0 0.26397 0.03141 0.49906 0.09405 0.70487s0.1586 0.37893 0.28835 0.51986 0.29303 0.24812 0.48989 0.32195c0.19686 0.0738 0.42832 0.1111 0.69453 0.1111 0.27516 0 0.51611-0.0418 0.72192-0.12454 0.20581-0.0828 0.37669-0.1998 0.51315-0.35192 0.13646-0.15212 0.2383-0.33335 0.30541-0.54363 0.06711-0.21029 0.10077-0.44313 0.10077-0.69815 0-0.26621-0.03141-0.50216-0.09405-0.70797s-0.15912-0.37945-0.28887-0.52038c-0.12751-0.14094-0.28941-0.24675-0.48628-0.31833-0.19686-0.0738-0.4297-0.1111-0.69815-0.1111zm3.9967 0c-0.18568 0-0.36466 0.0449-0.53692 0.13436-0.17002 0.0895-0.33779 0.22359-0.50333 0.40256v-0.34572c0-0.0224-0.0053-0.0412-0.01654-0.0568-0.01119-0.0179-0.03051-0.0322-0.05736-0.0434-0.02461-0.011-0.06051-0.0191-0.10749-0.0238-0.04698-7e-3 -0.10618-0.01-0.17777-0.01-0.06935 0-0.12717 3e-3 -0.17415 0.01-0.04474 4e-3 -0.08202 0.0126-0.1111 0.0238-0.02908 0.0112-0.04927 0.0255-0.06046 0.0434-0.01119 0.0157-0.01654 0.0344-0.01654 0.0568v2.9936c0 0.0224 0.0067 0.0421 0.02016 0.0599 0.01341 0.0157 0.03586 0.0291 0.06718 0.0403 0.03356 0.011 0.07705 0.0191 0.13074 0.0238 0.05369 7e-3 0.12187 0.01 0.20464 0.01s0.15095-3e-3 0.20464-0.01c0.05369-4e-3 0.09632-0.0126 0.12764-0.0238 0.03356-0.0112 0.05686-0.0246 0.07028-0.0403 0.01341-0.0179 0.02013-0.0375 0.02013-0.0599v-1.9901c0.11856-0.14988 0.233-0.2638 0.34262-0.3421 0.10961-0.0783 0.21818-0.11782 0.32556-0.11782 0.08501 0 0.15854 0.0171 0.22118 0.0506 0.06487 0.0313 0.11735 0.0771 0.15762 0.13746 0.04027 0.0582 0.07082 0.12858 0.09095 0.21135 0.02238 0.0828 0.03359 0.1967 0.03359 0.3421v1.7084c0 0.0224 0.0062 0.0421 0.01963 0.0599 0.01341 0.0157 0.03586 0.0291 0.06718 0.0403 0.03132 0.011 0.07395 0.0191 0.12764 0.0238 0.05593 7e-3 0.12548 0.01 0.20826 0.01 0.08054 0 0.14733-3e-3 0.20102-0.01 0.05593-4e-3 0.09994-0.0126 0.13126-0.0238 0.03132-0.0112 0.05324-0.0246 0.06666-0.0403 0.01342-0.0179 0.02016-0.0375 0.02016-0.0599v-1.849c0-0.217-0.01881-0.40271-0.05684-0.55707s-0.10086-0.28847-0.1881-0.40256c-0.08501-0.11632-0.19755-0.20832-0.33848-0.27543-0.1387-0.0671-0.31009-0.10077-0.51366-0.10077zm-14.117 0.0568c-0.08053 0-0.14871 4e-3 -0.20464 0.0103-0.05369 4e-3 -0.09719 0.0121-0.13074 0.0233-0.03132 0.0112-0.05376 0.0261-0.06718 0.0439-0.01119 0.0157-0.01704 0.0344-0.01704 0.0568v1.8324c0 0.22818 0.01794 0.41925 0.05374 0.5736 0.03803 0.15212 0.09947 0.28624 0.18448 0.40257 0.08725 0.11632 0.2003 0.20832 0.339 0.27543 0.14094 0.0671 0.31457 0.10077 0.52038 0.10077 0.18344 0 0.36018-0.0449 0.5302-0.13436 0.17226-0.0895 0.34089-0.22359 0.50643-0.40256v0.34572c0 0.0224 0.0059 0.0421 0.01704 0.0599 0.01119 0.0157 0.03 0.0291 0.05685 0.0403 0.02684 0.011 0.06275 0.0191 0.10749 0.0238 0.04698 7e-3 0.10704 0.01 0.18087 0.01 0.06935 0 0.12682-3e-3 0.17157-0.01 0.04698-4e-3 0.08374-0.0126 0.11059-0.0238 0.02908-0.0112 0.04927-0.0246 0.06046-0.0403 0.01119-0.0179 0.01654-0.0375 0.01654-0.0599v-2.9936c0-0.0224-0.0067-0.0412-0.02016-0.0568-0.01341-0.0179-0.03586-0.0322-0.06718-0.0434-0.03132-0.011-0.07344-0.0191-0.12712-0.0238-0.05369-7e-3 -0.12187-0.01-0.20464-0.01-0.08278 0-0.15147 3e-3 -0.20516 0.01-0.05369 4e-3 -0.09719 0.0126-0.13074 0.0238-0.03132 0.0112-0.05376 0.0255-0.06718 0.0434-0.01119 0.0157-0.01654 0.0344-0.01654 0.0568v1.9901c-0.12304 0.14988-0.2392 0.2638-0.34882 0.3421-0.10738 0.0783-0.21508 0.11782-0.32246 0.11782-0.08501 0-0.15992-0.0157-0.2248-0.047-0.06263-0.0336-0.11511-0.0798-0.15761-0.13797-0.04027-0.0604-0.0703-0.13168-0.09043-0.21446-0.02014-0.0828-0.03049-0.20256-0.03049-0.35915v-1.6914c0-0.0224-0.0067-0.0412-0.02016-0.0568-0.01342-0.0179-0.03673-0.0327-0.07028-0.0439-0.03132-0.011-0.07395-0.0186-0.12764-0.0233-0.05369-7e-3 -0.12187-0.0103-0.20464-0.0103zm7.3959 5.3e-4c-0.08277 0-0.15147 3e-3 -0.20516 0.01-0.05369 7e-3 -0.09719 0.0171-0.13075 0.0305-0.03132 0.0112-0.05376 0.0255-0.06718 0.0434-0.01341 0.0156-0.02016 0.0344-0.02016 0.0568v2.9869c0 0.0224 0.0067 0.0421 0.02016 0.0599 0.01341 0.0157 0.03586 0.0291 0.06718 0.0403 0.03356 0.011 0.07706 0.0191 0.13075 0.0238 0.05369 7e-3 0.12238 0.01 0.20516 0.01 0.08277 0 0.15095-3e-3 0.20464-0.01 0.05369-4e-3 0.09581-0.0126 0.12712-0.0238 0.03356-0.0112 0.05738-0.0246 0.0708-0.0403 0.01341-0.0179 0.02016-0.0375 0.02016-0.0599v-2.9869c0-0.0223-0.0067-0.0412-0.02016-0.0568-0.01344-0.0179-0.03724-0.0322-0.0708-0.0434-0.03132-0.0134-0.07344-0.0238-0.12712-0.0305-0.05369-7e-3 -0.12187-0.01-0.20464-0.01zm2.6944 0.6103c0.14094 0 0.2571 0.026 0.34882 0.0775 0.09396 0.0515 0.16886 0.12274 0.22479 0.21446 0.05592 0.0917 0.09545 0.20029 0.11782 0.32556 0.02461 0.12304 0.03669 0.25853 0.03669 0.40618 0 0.15883-0.01434 0.30106-0.04341 0.42633-0.02908 0.12304-0.07396 0.22798-0.13436 0.31522-0.0604 0.0872-0.13755 0.15454-0.23151 0.20154-0.09396 0.0447-0.20477 0.0672-0.33228 0.0672-0.1387 0-0.25486-0.0247-0.34882-0.0739-0.09396-0.0515-0.16938-0.12326-0.22531-0.21498-0.05369-0.0917-0.0927-0.19891-0.11731-0.32194-0.02461-0.12528-0.03669-0.26163-0.03669-0.40928 0-0.15883 0.01434-0.30019 0.04341-0.42323 0.03132-0.12527 0.07706-0.23108 0.13746-0.31833 0.0604-0.0895 0.13755-0.1568 0.23151-0.20154 0.09396-0.047 0.2039-0.0708 0.32918-0.0708zm-5.4999 0.047c0.1208 0 0.2361 0.0404 0.34572 0.12093 0.11185 0.0805 0.22802 0.19669 0.34882 0.34881v0.99322c-0.07158 0.0895-0.13752 0.16574-0.19792 0.22841-0.06041 0.0604-0.1196 0.10973-0.17777 0.1478-0.05593 0.0381-0.11202 0.0658-0.16795 0.0837-0.05369 0.0157-0.10927 0.0238-0.16743 0.0238-0.11633 0-0.21281-0.0283-0.28887-0.0842-0.07606-0.0559-0.1375-0.12945-0.18448-0.22117-0.04474-0.094-0.07702-0.20029-0.09715-0.31885s-0.03049-0.24059-0.03049-0.36587c0-0.11856 0.01122-0.23386 0.03359-0.34571 0.02461-0.11409 0.06051-0.21679 0.10749-0.30851 0.04922-0.0917 0.1129-0.16441 0.1912-0.21807 0.08054-0.0559 0.17564-0.0842 0.28526-0.0842z" fill="#fff"/>
  </clipPath>
  <filter id="filter1684" x="-.021819" y="-.091902" width="1.0436" height="1.1838" color-interpolation-filters="sRGB">
   <feGaussianBlur stdDeviation="0.23882359"/>
  </filter>
  <clipPath id="clipPath1777">
   <text x="40.847641" y="115.57648" fill="#ffffff" font-family="Calibri" font-size="3.9859px" stroke-width=".099648" style="line-height:1.25" xml:space="preserve"><tspan x="40.847641" y="115.57648" fill="#ffffff" font-family="Calibri" font-weight="bold" stroke-width=".099648">427</tspan></text>
  </clipPath>
  <filter id="filter1867" x="-.0095612" y="-.089677" width="1.0191" height="1.1794" color-interpolation-filters="sRGB">
   <feGaussianBlur stdDeviation="0.12045034"/>
  </filter>
  <clipPath id="clipPath1907">
   <path d="m29.527 114.56v0.26355h9.709v-0.26355zm18.899 0v0.26355h9.711v-0.26355z" color="#000000" color-rendering="auto" dominant-baseline="auto" fill="#fff" image-rendering="auto" shape-rendering="auto" solid-color="#000000" stop-color="#000000" style="font-feature-settings:normal;font-variant-alternates:normal;font-variant-caps:normal;font-variant-east-asian:normal;font-variant-ligatures:normal;font-variant-numeric:normal;font-variant-position:normal;font-variation-settings:normal;inline-size:0;isolation:auto;mix-blend-mode:normal;shape-margin:0;shape-padding:0;text-decoration-color:#000000;text-decoration-line:none;text-decoration-style:solid;text-indent:0;text-orientation:mixed;text-transform:none;white-space:normal"/>
  </clipPath>
  <filter id="filter2099" x="-.0092694" y="-.12724" width="1.0185" height="1.2545" color-interpolation-filters="sRGB">
   <feGaussianBlur stdDeviation="0.11523574"/>
  </filter>
 </defs>
 <g transform="translate(-1.6385 -7.5422)">
  <path x="28.178484" y="102.08019" width="31.30743" height="15.508235" rx="8726.9629" ry="0" d="m30.824 102.08h26.016a2.6458 2.6458 45 0 1 2.6458 2.6458v10.217a2.6458 2.6458 135 0 1-2.6458 2.6458h-26.016a2.6458 2.6458 45 0 1-2.6458-2.6458v-10.217a2.6458 2.6458 135 0 1 2.6458-2.6458z" />
  <g>
   <path d="m80.56 80.301-21.971 20.118c-0.11846 0.10846-28.862 0.21008-29.099-0.0113l-21.639-20.201c-1.8985-1.7723-3.5117-3.7014-3.6348-6.2957l-1.8443-38.872c-0.12309-2.5943 1.3782-5.0099 3.6348-6.2957l34.194-19.483c2.2566-1.2858 5-1.2626 7.2696 0l35.021 19.483c2.2696 1.2626 3.7634 3.7017 3.6348 6.2957l-1.9314 38.966c-0.12857 2.594-1.7193 4.5418-3.6348 6.2957z" fill="#fc0" stroke="#fff" stroke-dashoffset="5.6" stroke-linecap="round" stroke-linejoin="bevel" stroke-width="1.8"/>
   <path d="m30.501 101.13 27.049 8.5e-4a2.6086 2.6086 138.02 0 0 2.5941-2.334l5.4426-51.415a20.915 20.915 48.021 0 0-20.799-23.116h-1.3073a21.52 21.52 131.77 0 0-21.383 23.943l5.7245 50.529a2.6958 2.6958 41.769 0 0 2.6786 2.3923z" fill="#fff" stroke="#fff" stroke-width=".89788"/>
   <path d="m57.779 26.931-11.86 17.57a0.85231 0.85231 62.01 0 0 0.70644 1.3292h9.099a0.83821 0.83821 62.078 0 1 0.69363 1.3088l-22.641 33.37 10.804-26.518a1.1232 1.1232 56.083 0 0-1.0402-1.547h-8.0977a1.4168 1.4168 56.471 0 1-1.3047-1.969l13.246-31.293s16.347-9.5439 10.394 7.7485z" fill="#fc0"/>
   <path d="m44.564 104.84c-0.11006 0-0.20072 4e-3 -0.27211 0.0133-0.07139 9e-3 -0.12923 0.0227-0.17385 0.0405-0.04165 0.0149-0.07149 0.0339-0.08933 0.0576-0.01488 0.0238-0.02267 0.0507-0.02267 0.0805v2.1549c-0.17848-0.1755-0.35864-0.30724-0.54009-0.39648-0.18145-0.0923-0.38365-0.1388-0.60674-0.1388-0.28258 0-0.53252 0.0538-0.74967 0.16079-0.21714 0.10704-0.39846 0.26039-0.54421 0.4597-0.14576 0.19929-0.2573 0.44027-0.33464 0.72286-0.07437 0.28261-0.11132 0.60047-0.11132 0.95444 0 0.2945 0.02984 0.5761 0.08933 0.84381 0.05949 0.26475 0.15428 0.49678 0.28516 0.69608 0.13386 0.1993 0.30507 0.35789 0.5133 0.47687 0.2112 0.11595 0.46825 0.17453 0.77166 0.17453 0.27366 0 0.52245-0.0616 0.74555-0.18347 0.22607-0.12193 0.44135-0.29247 0.6466-0.5126v0.44183c0 0.0328 0.0078 0.0607 0.02267 0.0846 0.01785 0.0209 0.04469 0.0387 0.08039 0.0535 0.03867 0.0147 0.08756 0.0247 0.14705 0.0308 0.05949 6e-3 0.13706 0.01 0.23225 0.01 0.08924 0 0.16314-4e-3 0.22264-0.01 0.06247-5e-3 0.11204-0.016 0.14774-0.0308 0.0357-0.0149 0.06072-0.0328 0.07558-0.0535 0.01488-0.0238 0.02268-0.0518 0.02267-0.0846v-5.8544c0-0.0298-0.0089-0.0566-0.02679-0.0805-0.01785-0.0238-0.04769-0.0428-0.08933-0.0576-0.04165-0.0178-0.09833-0.0317-0.16973-0.0405-0.07139-0.01-0.16205-0.0133-0.2721-0.0133zm2.2531 0.13811c-0.25284 0-0.4252 0.0447-0.51742 0.13398-0.08924 0.0863-0.13399 0.24256-0.13399 0.46864 0 0.21719 0.04292 0.36752 0.12918 0.45076 0.08924 0.0834 0.26045 0.12433 0.51329 0.12433 0.24987 0 0.42108-0.043 0.5133-0.12911 0.09222-0.0863 0.13812-0.24256 0.13812-0.46864 0-0.2171-0.04476-0.36744-0.13399-0.45075-0.08924-0.0863-0.25862-0.12912-0.50849-0.12912zm-13.752 0.25836c-0.15171 0-0.27334 4e-3 -0.36556 0.01-0.09222 3e-3 -0.16497 0.0133-0.21851 0.0309-0.05057 0.0149-0.0882 0.0387-0.112 0.0714-0.0238 0.0297-0.04469 0.0697-0.06253 0.12021l-1.7804 5.1226c-0.03569 0.10411-0.05772 0.18694-0.06666 0.24943-0.0089 0.0625 0.0012 0.11197 0.03092 0.14773 0.02975 0.0327 0.08345 0.0536 0.16079 0.0625 0.07734 0.01 0.18475 0.0133 0.32158 0.0133 0.1279 0 0.2305-3e-3 0.30784-0.01 0.08031-5e-3 0.14113-0.0168 0.18278-0.0317 0.04462-0.0179 0.07561-0.0399 0.09345-0.0666 0.02082-0.0297 0.03758-0.0656 0.04948-0.10718l0.36556-1.129h2.1686l0.38824 1.1606c0.01196 0.0387 0.02682 0.0697 0.04467 0.0935 0.01786 0.0238 0.04884 0.0428 0.09345 0.0577 0.04461 0.0119 0.1091 0.0201 0.1924 0.0226 0.08627 6e-3 0.20492 0.01 0.35663 0.01 0.14575 0 0.26028-4e-3 0.34357-0.0133 0.08329-5e-3 0.14113-0.0238 0.17385-0.0535 0.03272-0.0327 0.04466-0.0805 0.03573-0.14293-0.0089-0.0625-0.03096-0.14715-0.06666-0.25424l-1.7852-5.1178c-0.01784-0.0565-0.03988-0.10137-0.06666-0.134-0.0238-0.0327-0.06556-0.0565-0.12506-0.0714-0.05651-0.0183-0.13639-0.0283-0.2405-0.0309-0.10412-6e-3 -0.24434-0.01-0.41984-0.01zm-0.01788 1.1296h0.0048l0.81632 2.4538h-1.6375zm17.388 0.28517c-0.36588 0-0.68558 0.0548-0.95925 0.16491-0.27069 0.1101-0.49676 0.26635-0.67821 0.46864-0.18145 0.19928-0.31801 0.44028-0.41022 0.72287-0.08924 0.27962-0.13399 0.58921-0.13399 0.92833 0 0.35099 0.04176 0.6636 0.12506 0.93726 0.08329 0.27366 0.2109 0.50386 0.38342 0.69126 0.17253 0.18739 0.38964 0.32992 0.65141 0.42809 0.26177 0.0981 0.56954 0.14773 0.92352 0.14773 0.36588 0 0.68627-0.0555 0.95994-0.16559 0.27366-0.11011 0.50088-0.26568 0.68233-0.46796 0.18145-0.20228 0.31686-0.44325 0.4061-0.72286 0.08924-0.27962 0.13399-0.58923 0.13399-0.92833 0-0.35398-0.04176-0.66772-0.12506-0.94138-0.08329-0.27367-0.21158-0.50456-0.38411-0.69195-0.16955-0.18741-0.38483-0.32811-0.6466-0.42329-0.26176-0.0981-0.57137-0.14773-0.92833-0.14773zm5.3143 0c-0.24689 0-0.48489 0.0597-0.71394 0.17866-0.22607 0.11901-0.44915 0.29731-0.66927 0.53529v-0.45971c0-0.0298-0.0071-0.0548-0.022-0.0755-0.01488-0.0238-0.04057-0.0428-0.07627-0.0576-0.03272-0.0147-0.08046-0.0255-0.14292-0.0317-0.06247-0.01-0.14119-0.0133-0.23638-0.0133-0.09222 0-0.1691 4e-3 -0.23157 0.0133-0.05949 5e-3 -0.10906 0.0168-0.14774 0.0317-0.03867 0.0149-0.06551 0.0339-0.08039 0.0576-0.01488 0.0209-0.02199 0.0457-0.02199 0.0755v3.9806c0 0.0298 0.0089 0.056 0.02679 0.0796 0.01784 0.0209 0.04769 0.0387 0.08933 0.0536 0.04462 0.0147 0.10246 0.0254 0.17385 0.0317 0.07139 0.01 0.16205 0.0133 0.27211 0.0133 0.11006 0 0.20072-4e-3 0.27211-0.0133 0.07139-5e-3 0.12808-0.0168 0.16972-0.0317 0.04462-0.0149 0.07561-0.0327 0.09345-0.0536 0.01785-0.0238 0.02679-0.0498 0.02679-0.0796v-2.6462c0.15766-0.1993 0.30982-0.35078 0.45558-0.4549 0.14576-0.10411 0.29012-0.15666 0.4329-0.15666 0.11304 0 0.2108 0.0227 0.2941 0.0673 0.08626 0.0416 0.15603 0.10253 0.20958 0.18278 0.05355 0.0774 0.09417 0.17097 0.12094 0.28103 0.02975 0.11011 0.04467 0.26156 0.04467 0.45489v2.2717c0 0.0298 0.0082 0.056 0.02611 0.0796 0.01785 0.0209 0.04769 0.0387 0.08933 0.0535 0.04165 0.0147 0.09833 0.0255 0.16972 0.0317 0.07437 0.01 0.16686 0.0133 0.27692 0.0133 0.10709 0 0.19591-4e-3 0.2673-0.0133 0.07437-5e-3 0.13289-0.0168 0.17453-0.0317 0.04165-0.0149 0.07079-0.0327 0.08864-0.0535 0.01785-0.0238 0.02679-0.0498 0.02679-0.0796v-2.4586c0-0.28855-0.02501-0.53548-0.07558-0.74074-0.05057-0.20525-0.13411-0.38357-0.25012-0.53528-0.11304-0.15467-0.26268-0.277-0.45007-0.36623-0.18443-0.0892-0.41233-0.134-0.68302-0.134zm-18.771 0.0755c-0.10708 0-0.19774 5e-3 -0.27211 0.0137-0.07139 5e-3 -0.12923 0.016-0.17385 0.0309-0.04165 0.0149-0.07149 0.0347-0.08933 0.0584-0.01488 0.0209-0.02267 0.0457-0.02267 0.0755v2.4366c0 0.30341 0.02386 0.55748 0.07146 0.76271 0.05057 0.20228 0.13226 0.38062 0.24531 0.53531 0.11602 0.15466 0.26634 0.27699 0.45076 0.36623 0.1874 0.0892 0.41829 0.134 0.69195 0.134 0.24392 0 0.47893-0.0597 0.70501-0.17867 0.22905-0.119 0.45328-0.2973 0.6734-0.53528v0.45971c0 0.0298 0.0078 0.056 0.02267 0.0796 0.01488 0.0209 0.03989 0.0387 0.07559 0.0535 0.03569 0.0147 0.08344 0.0254 0.14293 0.0317 0.06247 0.01 0.14233 0.0133 0.2405 0.0133 0.09222 0 0.16864-4e-3 0.22813-0.0133 0.06247-5e-3 0.11135-0.0168 0.14705-0.0317 0.03867-0.0149 0.06551-0.0327 0.08039-0.0535 0.01488-0.0238 0.022-0.0498 0.022-0.0796v-3.9806c0-0.0298-0.0089-0.0548-0.02679-0.0755-0.01785-0.0237-0.04769-0.0429-0.08933-0.0578-0.04165-0.0146-0.09765-0.0254-0.16904-0.0317-0.07139-0.01-0.16205-0.0133-0.27211-0.0133-0.11007 0-0.20141 4e-3 -0.2728 0.0133-0.07139 5e-3 -0.12923 0.0168-0.17385 0.0317-0.04165 0.0149-0.07149 0.0339-0.08933 0.0578-0.01488 0.0209-0.022 0.0457-0.022 0.0755v2.6462c-0.1636 0.19929-0.31806 0.35077-0.46382 0.45489-0.14278 0.10412-0.28599 0.15666-0.42878 0.15666-0.11304 0-0.21264-0.0209-0.29891-0.0625-0.08328-0.0447-0.15306-0.10611-0.20958-0.18346-0.05355-0.0804-0.09347-0.1751-0.12024-0.28517-0.02677-0.11011-0.04055-0.26934-0.04055-0.47757v-2.249c0-0.0298-0.0089-0.0548-0.02681-0.0755-0.01785-0.0238-0.04884-0.0435-0.09345-0.0584-0.04165-0.0147-0.09833-0.0247-0.16972-0.0309-0.07139-0.01-0.16205-0.0137-0.27211-0.0137zm9.8344 6.9e-4c-0.11006 0-0.20141 4e-3 -0.2728 0.0133-0.07139 0.01-0.12923 0.0227-0.17385 0.0405-0.04165 0.0149-0.07149 0.0339-0.08933 0.0577-0.01785 0.0207-0.02679 0.0457-0.02679 0.0755v3.9717c0 0.0298 0.0089 0.056 0.02679 0.0796 0.01785 0.0209 0.04769 0.0387 0.08933 0.0535 0.04462 0.0147 0.10247 0.0254 0.17385 0.0317 0.07139 0.01 0.16273 0.0133 0.2728 0.0133 0.11006 0 0.20072-4e-3 0.2721-0.0133 0.07139-5e-3 0.1274-0.0168 0.16904-0.0317 0.04463-0.0149 0.0763-0.0327 0.09415-0.0535 0.01785-0.0238 0.02679-0.0498 0.02679-0.0796v-3.9717c0-0.0297-0.0089-0.0548-0.02679-0.0755-0.01786-0.0238-0.04951-0.0428-0.09415-0.0577-0.04165-0.0178-0.09765-0.0317-0.16904-0.0405-0.07139-0.01-0.16205-0.0133-0.2721-0.0133zm3.5827 0.81152c0.1874 0 0.34186 0.0345 0.46382 0.10306 0.12494 0.0685 0.22454 0.1632 0.2989 0.28517 0.07436 0.12193 0.12692 0.26632 0.15667 0.43289 0.03272 0.16361 0.04879 0.34377 0.04879 0.5401 0 0.2112-0.01906 0.40032-0.05772 0.56688-0.03867 0.16361-0.09834 0.30316-0.17866 0.41915-0.08032 0.11596-0.1829 0.2055-0.30784 0.26799-0.12494 0.0594-0.27228 0.0893-0.44183 0.0893-0.18442 0-0.33889-0.0328-0.46382-0.0982-0.12494-0.0685-0.22523-0.1639-0.29959-0.28587-0.07139-0.12193-0.12326-0.26448-0.15598-0.42808-0.03272-0.16658-0.04879-0.34789-0.04879-0.54421 0-0.2112 0.01905-0.39917 0.05772-0.56277 0.04165-0.16657 0.10247-0.30727 0.18278-0.42329 0.08031-0.119 0.18291-0.20849 0.30784-0.26798 0.12494-0.0625 0.27113-0.0942 0.43771-0.0942zm-7.3132 0.0625c0.16063 0 0.31394 0.0537 0.4597 0.1608 0.14873 0.10704 0.30319 0.26155 0.46382 0.46381v1.3207c-0.09518 0.119-0.18286 0.22038-0.26318 0.30372-0.08033 0.0803-0.15904 0.1459-0.23637 0.19652-0.07437 0.0507-0.14896 0.0875-0.22332 0.1113-0.07139 0.0209-0.1453 0.0317-0.22263 0.0317-0.15468 0-0.28298-0.0376-0.38412-0.11197-0.10114-0.0743-0.18284-0.17213-0.24531-0.29409-0.05949-0.12498-0.10242-0.26632-0.12918-0.42397-0.02677-0.15764-0.04054-0.31991-0.04054-0.4865 0-0.15764 0.01491-0.31095 0.04467-0.45968 0.03272-0.15171 0.08046-0.28827 0.14292-0.41023 0.06545-0.12193 0.15013-0.21861 0.25424-0.28996 0.10709-0.0743 0.23354-0.11196 0.3793-0.11196z" fill="#fff"/>
   <path transform="matrix(1.3297 0 0 1.3297 -14.451 -37.425)" d="m30.697 106.31v6.2368h26.27v-6.2368zm13.685 0.82476c0.08277 0 0.15095 3e-3 0.20464 0.01 0.05369 7e-3 0.09632 0.0171 0.12764 0.0305 0.03132 0.0112 0.05376 0.0255 0.06718 0.0434 0.01345 0.0179 0.02015 0.0381 0.02015 0.0605v4.4028c1.1e-5 0.0246-0.0059 0.0462-0.01705 0.0641-0.01118 0.0156-0.02999 0.0291-0.05684 0.0403-0.02684 0.0111-0.06412 0.0187-0.1111 0.0227-0.04474 4e-3 -0.10032 7e-3 -0.16743 7e-3 -0.07159 0-0.12993-2e-3 -0.17467-7e-3 -0.04474-5e-3 -0.08151-0.0117-0.11059-0.0227-0.02685-0.0112-0.04704-0.0246-0.06046-0.0403-0.01115-0.0179-0.01705-0.0394-0.01705-0.0641v-0.33228c-0.15436 0.16554-0.31626 0.2938-0.48628 0.38551-0.16778 0.0917-0.35488 0.13797-0.56069 0.13797-0.22818 0-0.42149-0.0441-0.58033-0.13126-0.15659-0.0895-0.28535-0.20875-0.38602-0.35863-0.09843-0.14988-0.16972-0.32438-0.21446-0.52349-0.04474-0.20132-0.06718-0.41311-0.06718-0.63458 3e-6 -0.26621 0.02779-0.50526 0.08372-0.71779 0.05816-0.21252 0.14205-0.39375 0.25166-0.54363 0.10962-0.14989 0.24598-0.26522 0.40928-0.34572 0.16331-0.0805 0.35127-0.12092 0.56379-0.12092 0.16778 0 0.31984 0.035 0.4563 0.10439 0.13646 0.0671 0.27195 0.16618 0.40618 0.29817v-1.6206c0-0.0224 0.0059-0.0426 0.01705-0.0605 0.01342-0.0179 0.03586-0.0322 0.06718-0.0434 0.03355-0.0134 0.07705-0.0235 0.13074-0.0305 0.05369-7e-3 0.12187-0.01 0.20464-0.01zm1.6945 0.10387c0.18792 0 0.3153 0.0322 0.3824 0.0971 0.06711 0.0627 0.10077 0.17573 0.10077 0.339 0 0.17002-0.03452 0.28753-0.10387 0.35243-0.06935 0.0648-0.19811 0.0971-0.38602 0.0971-0.19015 0-0.31891-0.0308-0.38602-0.0935-0.06487-0.0626-0.09715-0.17566-0.09715-0.339-2e-6 -0.17002 0.03366-0.28753 0.10077-0.35243 0.06935-0.0672 0.19898-0.10077 0.38912-0.10077zm-10.342 0.1943c0.13199 0 0.23744 2e-3 0.31574 7e-3 0.0783 2e-3 0.13837 0.01 0.18087 0.0232 0.04474 0.0112 0.07615 0.0292 0.09405 0.0538 0.02014 0.0246 0.03671 0.0583 0.05013 0.10077l1.3426 3.8489c0.02685 0.0805 0.04343 0.1442 0.05013 0.1912s-0.0023 0.0829-0.02687 0.10749c-0.02461 0.0224-0.0681 0.0363-0.13074 0.0403-0.06264 7e-3 -0.14877 0.0103-0.25838 0.0103-0.11409 0-0.20332-2e-3 -0.2682-7e-3 -0.06264-2e-3 -0.11115-8e-3 -0.1447-0.017-0.03355-0.0112-0.05685-0.0255-0.07028-0.0434-0.01342-0.0179-0.02459-0.0412-0.03359-0.0703l-0.29197-0.87281h-1.6309l-0.27492 0.84904c-0.0089 0.0313-0.02155 0.0583-0.03721 0.0806-0.01342 0.0201-0.03672 0.0367-0.07028 0.0501-0.03132 0.0112-0.07706 0.0198-0.13746 0.0238-0.05817 5e-3 -0.13532 7e-3 -0.23151 7e-3 -0.1029 0-0.18368-3e-3 -0.24184-0.0103-0.05817-7e-3 -0.09855-0.0224-0.12092-0.047-0.02237-0.0269-0.02996-0.0641-0.02325-0.1111 0.0067-0.047 0.02329-0.10929 0.05013-0.18759l1.3389-3.8525c0.01342-0.038 0.02913-0.0676 0.04702-0.0899 0.0179-0.0246 0.0462-0.0425 0.08423-0.0537 0.04027-0.0133 0.09498-0.0213 0.16433-0.0233 0.06935-4e-3 0.16083-7e-3 0.27492-7e-3zm-0.01343 0.84956-0.61392 1.8454h1.2314l-0.61392-1.8454zm13.077 0.21446c0.26845 0 0.50129 0.0373 0.69815 0.1111 0.19686 0.0716 0.35876 0.17739 0.48628 0.31833 0.12975 0.14093 0.22623 0.31457 0.28887 0.52038s0.09405 0.44176 0.09405 0.70797c0 0.25502-0.03366 0.48786-0.10077 0.69815-0.06711 0.21028-0.16895 0.39151-0.30541 0.54363s-0.30734 0.26912-0.51315 0.35192c-0.20581 0.0827-0.44676 0.12454-0.72192 0.12454-0.26621 0-0.49767-0.0373-0.69453-0.1111-0.19686-0.0738-0.36015-0.18102-0.4899-0.32195s-0.22571-0.31405-0.28835-0.51986-0.09405-0.4409-0.09405-0.70487c0-0.25503 0.03366-0.48786 0.10077-0.69815 0.06935-0.21252 0.17205-0.39377 0.30851-0.54363 0.13646-0.15213 0.30647-0.26964 0.51004-0.35244 0.20581-0.0828 0.44624-0.12402 0.7214-0.12402zm3.9967 0c0.20357 0 0.37496 0.0337 0.51366 0.10077 0.14093 0.0671 0.25347 0.15911 0.33848 0.27543 0.08724 0.11409 0.15007 0.2482 0.1881 0.40256 0.03803 0.15436 0.05685 0.34008 0.05685 0.55707v1.849c0 0.0224-0.0067 0.042-0.02015 0.0599-0.01342 0.0157-0.03534 0.0291-0.06667 0.0403-0.03132 0.0112-0.07533 0.0198-0.13126 0.0238-0.05369 7e-3 -0.12048 0.01-0.20102 0.01-0.08277 0-0.15233-3e-3 -0.20826-0.01-0.05369-5e-3 -0.09632-0.0128-0.12764-0.0238-0.03132-0.0112-0.05376-0.0246-0.06718-0.0403-0.01344-0.0178-0.01963-0.0375-0.01963-0.0599v-1.7084c0-0.1454-0.01122-0.25929-0.03359-0.34209-0.02013-0.0828-0.05068-0.15316-0.09095-0.21136-0.04027-0.0604-0.09274-0.10616-0.15761-0.13746-0.06264-0.0335-0.13616-0.0506-0.22118-0.0506-0.10738 0-0.21594 0.0395-0.32556 0.11782-0.10962 0.0783-0.22405 0.19222-0.34261 0.3421v1.9901c0 0.0224-0.0067 0.042-0.02015 0.0599-0.01342 0.0157-0.03672 0.0291-0.07028 0.0403-0.03132 0.0112-0.07395 0.0198-0.12764 0.0238-0.05368 7e-3 -0.12187 0.01-0.20464 0.01s-0.15095-3e-3 -0.20464-0.01c-0.05369-5e-3 -0.09718-0.0128-0.13074-0.0238-0.03132-0.0112-0.05376-0.0246-0.06718-0.0403-0.01345-0.0178-0.02015-0.0375-0.02015-0.0599v-2.9936c0-0.0224 0.0053-0.0411 0.01654-0.0568 0.01119-0.0179 0.03138-0.0322 0.06046-0.0434s0.06636-0.0198 0.1111-0.0238c0.04698-7e-3 0.1048-0.01 0.17415-0.01 0.07159 0 0.13079 3e-3 0.17777 0.01 0.04698 5e-3 0.08288 0.0128 0.10748 0.0238 0.02685 0.0112 0.04617 0.0255 0.05736 0.0434 0.01124 0.0156 0.01654 0.0344 0.01654 0.0568v0.34572c0.16554-0.17897 0.33331-0.31306 0.50333-0.40256 0.17225-0.0895 0.35124-0.13436 0.53692-0.13436zm-14.117 0.0568c0.08278 0 0.15095 3e-3 0.20464 0.0103 0.05369 5e-3 0.09632 0.0123 0.12764 0.0233 0.03355 0.0112 0.05686 0.026 0.07028 0.0439 0.01346 0.0156 0.02015 0.0344 0.02015 0.0568v1.6914c0 0.15659 0.01036 0.27635 0.03049 0.35915s0.05016 0.15406 0.09043 0.21446c0.0425 0.0582 0.09498 0.10438 0.15761 0.13798 0.06488 0.0313 0.13978 0.047 0.22479 0.047 0.10738 0 0.21508-0.0395 0.32246-0.11782 0.10962-0.0783 0.22578-0.19222 0.34882-0.3421v-1.9901c0-0.0224 0.0053-0.0411 0.01654-0.0568 0.01342-0.0179 0.03586-0.0322 0.06718-0.0434 0.03355-0.0112 0.07705-0.0198 0.13074-0.0238 0.05369-7e-3 0.12238-0.0103 0.20516-0.0103 0.08277 0 0.15095 3e-3 0.20464 0.0103 0.05368 5e-3 0.0958 0.0128 0.12712 0.0238 0.03132 0.0112 0.05376 0.0255 0.06718 0.0434 0.01345 0.0156 0.02015 0.0344 0.02015 0.0568v2.9936c0 0.0224-0.0053 0.042-0.01654 0.0599-0.01119 0.0157-0.03138 0.0291-0.06046 0.0403-0.02685 0.0112-0.06361 0.0198-0.11059 0.0238-0.04474 7e-3 -0.10222 0.01-0.17157 0.01-0.07382 0-0.13389-3e-3 -0.18087-0.01-0.04474-5e-3 -0.08065-0.0128-0.10749-0.0238-0.02685-0.0112-0.04565-0.0246-0.05684-0.0403-0.01115-0.0178-0.01705-0.0375-0.01705-0.0599v-0.34572c-0.16554 0.17897-0.33417 0.31306-0.50643 0.40256-0.17002 0.0895-0.34676 0.13436-0.5302 0.13436-0.20581 0-0.37945-0.0337-0.52038-0.10077-0.1387-0.0671-0.25175-0.15911-0.339-0.27543-0.08501-0.11634-0.14646-0.25044-0.18449-0.40256-0.03579-0.15435-0.05374-0.34543-0.05374-0.57361v-1.8324c0-0.0224 0.0059-0.0411 0.01705-0.0568 0.01342-0.0178 0.03586-0.0327 0.06718-0.0439 0.03355-0.0112 0.07705-0.0192 0.13074-0.0233 0.05593-6e-3 0.12411-0.0103 0.20464-0.0103zm7.3959 5.2e-4c0.08277 0 0.15095 3e-3 0.20464 0.01 0.05368 7e-3 0.0958 0.0171 0.12712 0.0305 0.03356 0.0112 0.05737 0.0255 0.0708 0.0434 0.01345 0.0156 0.02016 0.0345 0.02016 0.0568v2.9869c-2e-6 0.0224-0.0067 0.042-0.02016 0.0599-0.01342 0.0157-0.03723 0.0291-0.0708 0.0403-0.03131 0.0112-0.07343 0.0198-0.12712 0.0238-0.05369 7e-3 -0.12187 0.0103-0.20464 0.0103s-0.15147-3e-3 -0.20516-0.0103c-0.05368-5e-3 -0.09718-0.0128-0.13074-0.0238-0.03132-0.0112-0.05376-0.0246-0.06718-0.0403-0.01345-0.0178-0.02015-0.0375-0.02015-0.0599v-2.9869c0-0.0224 0.0067-0.0412 0.02015-0.0568 0.01342-0.0179 0.03586-0.0322 0.06718-0.0434 0.03355-0.0134 0.07705-0.0235 0.13074-0.0305 0.05369-7e-3 0.12239-0.01 0.20516-0.01zm2.6944 0.6103c-0.12528 0-0.23522 0.0238-0.32918 0.0708-0.09396 0.0447-0.17111 0.11204-0.23151 0.20154-0.0604 0.0873-0.10614 0.19306-0.13746 0.31833-0.02908 0.12304-0.04341 0.2644-0.04341 0.42323 0 0.14765 0.01208 0.284 0.03669 0.40928 0.02461 0.12303 0.06362 0.23024 0.1173 0.32194 0.05593 0.0917 0.13135 0.16348 0.22531 0.21498 0.09396 0.0492 0.21012 0.0739 0.34882 0.0739 0.12751 0 0.23832-0.0225 0.33228-0.0672 0.09396-0.047 0.17111-0.11434 0.23151-0.20153 0.0604-0.0872 0.10528-0.19219 0.13436-0.31523 0.02908-0.12527 0.04341-0.2675 0.04341-0.42633 0-0.14765-0.01208-0.28314-0.03669-0.40618-0.02237-0.12527-0.0619-0.23386-0.11782-0.32556-0.05593-0.0917-0.13083-0.16296-0.22479-0.21446-0.09172-0.0515-0.20788-0.0775-0.34882-0.0775zm-5.4999 0.047c-0.10962 0-0.20471 0.0283-0.28525 0.0842-0.07829 0.0537-0.14198 0.12637-0.1912 0.21807-0.04698 0.0917-0.08288 0.19442-0.10749 0.30851-0.02238 0.11185-0.03359 0.22715-0.03359 0.34571 0 0.12528 0.01036 0.24731 0.03049 0.36587s0.05241 0.22485 0.09715 0.31885c0.04698 0.0917 0.10843 0.16527 0.18449 0.22117s0.17254 0.0842 0.28887 0.0842c0.05816 0 0.11374-8e-3 0.16743-0.0238 0.05593-0.0179 0.11202-0.0456 0.16795-0.0837 0.05816-0.0381 0.11736-0.0874 0.17777-0.1478 0.0604-0.0627 0.12634-0.13891 0.19792-0.22841v-0.99322c-0.1208-0.15212-0.23696-0.26831-0.34882-0.34881-0.10962-0.0805-0.22492-0.12093-0.34572-0.12093z" clip-path="url(#clipPath1144)" fill="#4d4d4d" filter="url(#filter1684)"/>
  </g>
  <g transform="translate(.14297)">
   <text x="40.847641" y="115.57648" fill="#ffffff" font-family="Calibri" font-size="3.9859px" stroke-width=".099648" style="line-height:1.25" xml:space="preserve"><tspan x="40.847641" y="115.57648" fill="#ffffff" font-family="Calibri" font-weight="bold" stroke-width=".099648">427</tspan></text>
   <path d="m28.848 112.89v3.2236h30.235v-3.2236zm14.999 0.22531c0.13105 0 0.2453 0.0169 0.34261 0.0506 0.09861 0.0324 0.18007 0.0783 0.24495 0.13798 0.06487 0.0584 0.11304 0.12858 0.14418 0.21032 0.03244 0.0804 0.04857 0.16755 0.04857 0.26097 0 0.0817-0.0077 0.16218-0.02325 0.24133-0.01557 0.0791-0.04836 0.16471-0.09767 0.25683-0.04931 0.0908-0.11873 0.19176-0.20826 0.30334-0.08953 0.11029-0.20814 0.23889-0.35605 0.38551l-0.29352 0.30179h0.99219c0.01298 0 0.02476 4e-3 0.03514 0.0119 0.01168 8e-3 0.02167 0.0198 0.02945 0.0367 0.0078 0.0156 0.01368 0.0368 0.01757 0.0641 0.0039 0.0259 0.0057 0.0572 0.0057 0.0935 0 0.0376-0.0018 0.0699-0.0057 0.0971-0.0026 0.026-0.0075 0.0477-0.01395 0.0646-0.0065 0.0169-0.01494 0.0289-0.02532 0.0367-0.01038 6e-3 -0.02216 0.01-0.03514 0.01h-1.448c-0.02854 0-0.05314-3e-3 -0.0739-8e-3s-0.03767-0.0147-0.05064-0.0289c-0.01298-0.0156-0.02245-0.0376-0.02894-0.0661-0.0052-0.0286-0.0078-0.0657-0.0078-0.11111 0-0.0428 0.0018-0.0792 0.0057-0.10903 0.0039-0.0312 0.01081-0.0583 0.02119-0.0817 0.01038-0.0247 0.0237-0.0482 0.03927-0.0703 0.01687-0.0234 0.03813-0.0487 0.06408-0.076l0.43615-0.46715c0.08693-0.0908 0.15661-0.17306 0.20981-0.24702 0.0532-0.0752 0.09522-0.14314 0.12506-0.20412 0.02984-0.0623 0.04957-0.11967 0.05994-0.17156 0.01168-0.0519 0.01757-0.10109 0.01757-0.1478 0-0.0428-0.0069-0.0833-0.02119-0.12092-0.01297-0.0389-0.03321-0.0722-0.06046-0.10077-0.02595-0.0285-0.05899-0.0506-0.09922-0.0662-0.04022-0.0169-0.08761-0.0253-0.14211-0.0253-0.07655 0-0.14444 9e-3 -0.20412 0.0289-0.05839 0.0195-0.11065 0.0415-0.15606 0.0661-0.04412 0.0233-0.08075 0.0454-0.11059 0.0661-0.02984 0.0195-0.05341 0.0295-0.07028 0.0295-0.01168 0-0.02192-4e-3 -0.031-0.0119-0.0078-8e-3 -0.01445-0.0206-0.01964-0.0387-0.0052-0.0182-0.0095-0.0425-0.01344-0.0724-0.0026-0.0311-0.0041-0.0685-0.0041-0.11266 0-0.0298 7.7e-4 -0.0544 0.0021-0.0739 0.0026-0.0208 0.0059-0.0384 0.0098-0.0527 0.0039-0.0156 9e-3 -0.0284 0.0155-0.0388 0.0065-0.0117 0.0175-0.0252 0.03307-0.0408 0.01687-0.0156 0.04658-0.035 0.0894-0.0584 0.04411-0.0247 0.09817-0.0482 0.16174-0.0703 0.06358-0.0234 0.13326-0.0428 0.20981-0.0584 0.07655-0.0156 0.15674-0.0233 0.23978-0.0233zm-1.7224 0.0331c0.06617 0 0.12227 2e-3 0.16898 6e-3 0.04671 3e-3 0.08386 8e-3 0.1111 0.0155 0.02855 6e-3 0.04904 0.0149 0.06201 0.0253s0.01964 0.0229 0.01964 0.0372v1.5162h0.22376c0.02076 0 0.03844 0.0161 0.05271 0.0486 0.01557 0.0311 0.02325 0.0837 0.02325 0.15762 0 0.0662-0.0069 0.11689-0.02119 0.15192-0.01298 0.0337-0.03142 0.0507-0.05478 0.0507h-0.22376v0.45527c0 0.013-0.0036 0.0248-0.01137 0.0351-0.0078 9e-3 -0.02188 0.0168-0.04134 0.0233-0.01946 6e-3 -0.04431 0.0108-0.07545 0.0134-0.03114 4e-3 -0.07162 6e-3 -0.12092 6e-3 -0.04671 0-0.08642-2e-3 -0.11886-6e-3 -0.03114-3e-3 -0.0565-7e-3 -0.07596-0.0134-0.01816-6e-3 -0.03097-0.0142-0.03876-0.0233-0.0065-0.0104-0.0098-0.0222-0.0098-0.0351v-0.45527h-0.96325c-0.01816 0-0.0343-2e-3 -0.04857-6e-3 -0.01427-5e-3 -0.02683-0.0154-0.03721-0.031-0.0091-0.0169-0.016-0.0399-0.02119-0.0698-0.0039-0.0311-0.0057-0.0724-0.0057-0.12299 0-0.0415 2.54e-4 -0.0771 0.0016-0.10697 0.0026-0.0311 0.0059-0.0591 0.0098-0.0837 0.0052-0.0247 0.01185-0.0477 0.01964-0.0698 0.0091-0.0221 0.0201-0.0456 0.03307-0.0703l0.78238-1.3798c0.0065-0.0117 0.0175-0.0217 0.03307-0.0295 0.01557-9e-3 0.03683-0.016 0.06408-0.0212 0.02854-6e-3 0.06415-0.0108 0.10697-0.0134 0.04282-3e-3 0.09508-4e-3 0.15606-4e-3zm3.0029 0.0119h1.4966c0.02335 0 0.04282 3e-3 0.05839 8e-3 0.01557 4e-3 0.02813 0.0134 0.03721 0.0289 0.0091 0.0156 0.01523 0.0376 0.01912 0.0661 0.0052 0.0285 0.0078 0.0665 0.0078 0.11317 0 0.0376-1e-3 0.0707-0.0036 0.0992-0.0026 0.0272-0.0067 0.0529-0.01189 0.0775-0.0039 0.0234-0.0098 0.0462-0.01757 0.0682-0.0078 0.0208-0.01649 0.0436-0.02687 0.0682l-0.8294 1.9208c-0.0078 0.0169-0.01803 0.0304-0.03101 0.0408-0.01168 0.0104-0.02858 0.0188-0.05064 0.0253-0.02206 5e-3 -0.05075 9e-3 -0.08578 0.01-0.03374 3e-3 -0.07549 4e-3 -0.12609 4e-3 -0.06876 0-0.12359-3e-3 -0.16381-8e-3 -0.04022-4e-3 -0.06994-0.0106-0.0894-0.0196-0.01816-0.0104-0.02816-0.0229-0.02946-0.0372-0.0013-0.0156 0.0036-0.0343 0.01395-0.0563l0.89142-1.9658h-1.0588c-0.02725 0-0.04826-0.0172-0.06253-0.0522-0.01297-0.0363-0.01912-0.0937-0.01912-0.17156 0-0.0389 0.0018-0.072 0.0057-0.0992 0.0039-0.0286 9e-3 -0.0516 0.0155-0.0698 0.0078-0.0182 0.01624-0.0315 0.02532-0.0393 0.01038-8e-3 0.02217-0.0114 0.03514-0.0114zm-3.1373 0.42995-0.66404 1.1581h0.66766v-1.1581z" clip-path="url(#clipPath1777)" fill="#4d4d4d" filter="url(#filter1867)"/>
  </g>
  <path d="m29.527 114.56v0.26355h9.709v-0.26355zm18.899 0v0.26355h9.711v-0.26355z" color="#000000" color-rendering="auto" dominant-baseline="auto" fill="#fff" image-rendering="auto" shape-rendering="auto" solid-color="#000000" stop-color="#000000" style="font-feature-settings:normal;font-variant-alternates:normal;font-variant-caps:normal;font-variant-east-asian:normal;font-variant-ligatures:normal;font-variant-numeric:normal;font-variant-position:normal;font-variation-settings:normal;inline-size:0;isolation:auto;mix-blend-mode:normal;shape-margin:0;shape-padding:0;text-decoration-color:#000000;text-decoration-line:none;text-decoration-style:solid;text-indent:0;text-orientation:mixed;text-transform:none;white-space:normal"/>
  <path d="m28.915 113.72v2.1735h29.836v-2.1735zm0.61236 0.90796h9.709v0.26355h-9.709zm18.899 0h9.711v0.26355h-9.711z" clip-path="url(#clipPath1907)" fill="#4d4d4d" filter="url(#filter2099)"/>
 </g>
</svg>
